<?xml version="1.0" encoding="utf-8"?>
<!-- Generator: Adobe Illustrator 25.1.0, SVG Export Plug-In . SVG Version: 6.00 Build 0)  -->
<svg version="1.1" id="レイヤー_1" xmlns="http://www.w3.org/2000/svg" xmlns:xlink="http://www.w3.org/1999/xlink" x="0px"
	 y="0px" viewBox="0 0 420 122" style="enable-background:new 0 0 420 122;" xml:space="preserve">
<style type="text/css">
	.st0{fill:#003D6C;}
	.st1{fill:#231815;}
</style>
<g>
	<g>
		<polygon class="st0" points="36.1,0.7 36.1,36.1 0,36.1 0,121.4 54.7,121.4 54.7,103.8 18.7,103.8 18.7,53.8 36.1,53.8 36.1,86.1 
			54.8,86.1 54.8,18.3 72.1,18.3 72.1,86.1 90.8,86.1 90.8,0.7 		"/>
		<g>
			<g>
				<path class="st1" d="M150.7,59.3c-0.2,4-1.5,7-3.8,9c-2.3,2-5.6,3.1-9.8,3.1c-2.2,0-4.1-0.3-5.8-1c-1.7-0.6-3.2-1.6-4.3-2.8
					c-1.2-1.3-2.1-2.8-2.7-4.7c-0.6-1.9-0.9-4-0.9-6.4v-5.9c0-2.4,0.3-4.6,1-6.4c0.6-1.9,1.6-3.4,2.8-4.7c1.2-1.3,2.7-2.2,4.4-2.9
					c1.7-0.6,3.6-1,5.8-1c4.3,0,7.5,1.1,9.8,3.2c2.2,2.1,3.5,5.2,3.8,9.1h-8c0-1.2-0.2-2.3-0.4-3.1c-0.2-0.8-0.5-1.5-1-2
					c-0.4-0.5-1-0.8-1.7-1.1c-0.7-0.2-1.6-0.3-2.6-0.3c-1.1,0-2,0.2-2.7,0.5c-0.7,0.3-1.4,0.8-1.8,1.5c-0.5,0.7-0.8,1.6-1,2.8
					c-0.2,1.2-0.3,2.6-0.3,4.2v6c0,1.6,0.1,3,0.3,4.2c0.2,1.1,0.5,2.1,0.9,2.8c0.4,0.7,1,1.3,1.8,1.6c0.7,0.3,1.7,0.5,2.8,0.5
					c1,0,1.8-0.1,2.5-0.3c0.7-0.2,1.3-0.5,1.7-1c0.4-0.5,0.8-1.1,1-1.9c0.2-0.8,0.4-1.8,0.4-3.1H150.7z"/>
				<path class="st1" d="M162.6,47.3c0.8-0.9,1.7-1.6,2.7-2c1-0.5,2.1-0.7,3.4-0.7c1.2,0,2.3,0.2,3.3,0.5c1,0.4,1.9,0.9,2.6,1.7
					c0.7,0.8,1.3,1.8,1.7,3.1c0.4,1.3,0.6,2.8,0.6,4.7v16.3h-7.7V54.5c0-0.8-0.1-1.5-0.2-2.1c-0.1-0.6-0.4-1-0.6-1.3
					c-0.3-0.3-0.6-0.6-1.1-0.7c-0.4-0.1-0.9-0.2-1.5-0.2c-0.8,0-1.4,0.2-1.9,0.5c-0.5,0.3-1,0.7-1.3,1.2v19H155V34.2h7.6V47.3z"/>
				<path class="st1" d="M196.8,68.5c-0.8,0.9-1.7,1.6-2.7,2.1c-1.1,0.5-2.3,0.7-3.7,0.7c-1.2,0-2.3-0.2-3.3-0.5
					c-1-0.4-1.9-0.9-2.6-1.7c-0.7-0.8-1.3-1.8-1.7-3c-0.4-1.2-0.6-2.7-0.6-4.4V45h7.6v16.8c0,1.4,0.3,2.4,0.8,3
					c0.5,0.6,1.2,0.9,2.1,0.9c0.9,0,1.7-0.2,2.3-0.5c0.6-0.4,1.1-0.8,1.5-1.5V45h7.7v25.9H197L196.8,68.5z"/>
				<path class="st1" d="M208.8,57.1c0-2,0.3-3.8,0.8-5.4c0.6-1.6,1.4-2.9,2.4-3.9c1-1.1,2.3-1.9,3.7-2.4c1.4-0.6,3.1-0.8,4.9-0.8
					c1.8,0,3.5,0.3,4.9,0.8c1.5,0.5,2.7,1.4,3.7,2.4c1,1.1,1.8,2.4,2.4,3.9c0.6,1.6,0.8,3.4,0.8,5.4v1.7c0,2-0.3,3.8-0.8,5.4
					c-0.5,1.6-1.3,2.9-2.4,3.9c-1,1.1-2.3,1.9-3.7,2.4c-1.5,0.5-3.1,0.8-4.9,0.8c-1.8,0-3.5-0.3-4.9-0.8c-1.5-0.5-2.7-1.3-3.7-2.4
					c-1-1.1-1.8-2.4-2.4-3.9c-0.6-1.6-0.8-3.3-0.8-5.4V57.1z M216.4,58.8c0,2.4,0.4,4.2,1.1,5.3c0.7,1.1,1.8,1.7,3.1,1.7
					c1.4,0,2.4-0.6,3.1-1.7c0.7-1.1,1.1-2.9,1.1-5.3v-1.7c0-2.4-0.4-4.1-1.1-5.2c-0.7-1.1-1.8-1.7-3.1-1.7c-1.3,0-2.3,0.6-3,1.7
					c-0.7,1.1-1.1,2.9-1.1,5.2V58.8z"/>
				<path class="st1" d="M277.8,70.9h-7.9L258.3,48v22.8h-7.9V36.1h7.9l11.6,22.8V36.1h7.9V70.9z"/>
				<path class="st1" d="M283.8,38.3c0-0.5,0.1-1,0.3-1.4c0.2-0.4,0.5-0.8,0.8-1.1c0.4-0.3,0.8-0.6,1.3-0.7c0.5-0.2,1.1-0.3,1.7-0.3
					c0.6,0,1.2,0.1,1.7,0.3c0.5,0.2,1,0.4,1.3,0.7c0.4,0.3,0.6,0.7,0.8,1.1c0.2,0.4,0.3,0.9,0.3,1.4s-0.1,1-0.3,1.4
					c-0.2,0.4-0.5,0.8-0.8,1.1c-0.4,0.3-0.8,0.6-1.3,0.8c-0.5,0.2-1.1,0.3-1.7,0.3c-0.6,0-1.2-0.1-1.7-0.3c-0.5-0.2-1-0.4-1.3-0.8
					c-0.4-0.3-0.6-0.7-0.8-1.1C283.9,39.3,283.8,38.8,283.8,38.3z M291.9,70.9h-7.7V45h7.7V70.9z"/>
				<path class="st1" d="M306.7,38.6V45h3.9v5.1h-3.9v12.8c0,0.5,0,1,0.1,1.3c0.1,0.4,0.2,0.6,0.4,0.8c0.2,0.2,0.4,0.3,0.7,0.4
					c0.3,0.1,0.6,0.1,1.1,0.1c0.4,0,0.7,0,1,0c0.3,0,0.6-0.1,0.8-0.1l-0.1,5.3c-0.6,0.2-1.2,0.3-1.9,0.5c-0.7,0.1-1.5,0.2-2.4,0.2
					c-1.1,0-2.2-0.1-3.1-0.4c-0.9-0.3-1.7-0.7-2.4-1.3c-0.7-0.6-1.2-1.4-1.5-2.4c-0.4-1-0.5-2.1-0.5-3.5V50.1h-3.4V45h3.4v-6.4
					H306.7z"/>
				<path class="st1" d="M323.7,38.6V45h3.9v5.1h-3.9v12.8c0,0.5,0,1,0.1,1.3c0.1,0.4,0.2,0.6,0.4,0.8c0.2,0.2,0.4,0.3,0.7,0.4
					c0.3,0.1,0.6,0.1,1.1,0.1c0.4,0,0.7,0,1,0c0.3,0,0.6-0.1,0.8-0.1l-0.1,5.3c-0.6,0.2-1.2,0.3-1.9,0.5c-0.7,0.1-1.5,0.2-2.3,0.2
					c-1.1,0-2.2-0.1-3.1-0.4c-0.9-0.3-1.7-0.7-2.4-1.3c-0.7-0.6-1.2-1.4-1.5-2.4c-0.4-1-0.5-2.1-0.5-3.5V50.1h-3.4V45h3.4v-6.4
					H323.7z"/>
				<path class="st1" d="M330.1,57.1c0-2,0.3-3.8,0.8-5.4c0.6-1.6,1.4-2.9,2.4-3.9c1-1.1,2.3-1.9,3.7-2.4c1.5-0.6,3.1-0.8,4.9-0.8
					c1.8,0,3.5,0.3,4.9,0.8c1.5,0.5,2.7,1.4,3.7,2.4c1,1.1,1.8,2.4,2.4,3.9c0.6,1.6,0.8,3.4,0.8,5.4v1.7c0,2-0.3,3.8-0.8,5.4
					c-0.5,1.6-1.3,2.9-2.4,3.9c-1,1.1-2.3,1.9-3.7,2.4c-1.5,0.5-3.1,0.8-4.9,0.8c-1.8,0-3.5-0.3-4.9-0.8c-1.5-0.5-2.7-1.3-3.7-2.4
					c-1-1.1-1.8-2.4-2.4-3.9c-0.6-1.6-0.8-3.3-0.8-5.4V57.1z M337.8,58.8c0,2.4,0.4,4.2,1.1,5.3c0.7,1.1,1.8,1.7,3.1,1.7
					c1.4,0,2.4-0.6,3.1-1.7c0.7-1.1,1.1-2.9,1.1-5.3v-1.7c0-2.4-0.4-4.1-1.1-5.2c-0.7-1.1-1.8-1.7-3.1-1.7c-1.3,0-2.3,0.6-3,1.7
					c-0.7,1.1-1.1,2.9-1.1,5.2V58.8z"/>
				<path class="st1" d="M369.1,65.7c1.1,0,1.9-0.3,2.5-0.9c0.6-0.6,0.9-1.6,0.9-3h7.2c0,1.5-0.3,2.8-0.8,4c-0.5,1.2-1.3,2.2-2.2,3
					c-0.9,0.8-2,1.4-3.3,1.9c-1.3,0.4-2.6,0.6-4.1,0.6c-2,0-3.7-0.3-5.1-0.8c-1.5-0.6-2.7-1.4-3.6-2.4c-1-1.1-1.7-2.4-2.2-3.9
					c-0.5-1.5-0.7-3.3-0.7-5.3V57c0-2,0.2-3.7,0.7-5.3c0.5-1.6,1.2-2.9,2.1-3.9c1-1.1,2.2-1.9,3.6-2.4c1.5-0.6,3.2-0.8,5.1-0.8
					c1.6,0,3,0.2,4.3,0.7c1.3,0.4,2.4,1.1,3.3,1.9c0.9,0.9,1.6,1.9,2.1,3.2c0.5,1.3,0.8,2.7,0.8,4.4h-7.2c0-1.4-0.3-2.6-0.8-3.3
					c-0.5-0.8-1.4-1.2-2.6-1.2c-0.8,0-1.5,0.2-2,0.5c-0.5,0.3-0.9,0.7-1.1,1.3c-0.3,0.6-0.4,1.3-0.5,2.2c-0.1,0.9-0.1,1.8-0.1,3v1.9
					c0,1.1,0,2.1,0.1,3c0.1,0.9,0.2,1.6,0.5,2.1c0.3,0.6,0.6,1,1.1,1.3C367.5,65.6,368.2,65.7,369.1,65.7z"/>
				<path class="st1" d="M391.4,47.3c0.8-0.9,1.7-1.6,2.7-2c1-0.5,2.1-0.7,3.4-0.7c1.2,0,2.3,0.2,3.3,0.5c1,0.4,1.9,0.9,2.6,1.7
					c0.7,0.8,1.3,1.8,1.7,3.1c0.4,1.3,0.6,2.8,0.6,4.7v16.3H398V54.5c0-0.8-0.1-1.5-0.2-2.1c-0.1-0.6-0.4-1-0.6-1.3
					c-0.3-0.3-0.6-0.6-1.1-0.7c-0.4-0.1-0.9-0.2-1.5-0.2c-0.8,0-1.4,0.2-1.9,0.5c-0.5,0.3-1,0.7-1.3,1.2v19h-7.6V34.2h7.6V47.3z"/>
				<path class="st1" d="M411.2,38.3c0-0.5,0.1-1,0.3-1.4c0.2-0.4,0.5-0.8,0.8-1.1c0.4-0.3,0.8-0.6,1.3-0.7c0.5-0.2,1.1-0.3,1.7-0.3
					s1.2,0.1,1.7,0.3c0.5,0.2,0.9,0.4,1.3,0.7c0.4,0.3,0.6,0.7,0.8,1.1c0.2,0.4,0.3,0.9,0.3,1.4s-0.1,1-0.3,1.4
					c-0.2,0.4-0.5,0.8-0.8,1.1c-0.4,0.3-0.8,0.6-1.3,0.8c-0.5,0.2-1.1,0.3-1.7,0.3s-1.2-0.1-1.7-0.3c-0.5-0.2-1-0.4-1.3-0.8
					c-0.4-0.3-0.6-0.7-0.8-1.1C411.3,39.3,411.2,38.8,411.2,38.3z M419.2,70.9h-7.7V45h7.7V70.9z"/>
			</g>
			<g>
				<g>
					<path class="st1" d="M133.4,90.8v-3.4H131v3.4l-7.7,0v10.7l7.7,0v4.8h2.4v-4.8l7.7,0V90.8L133.4,90.8z M125.7,99.4V93h5.3v6.4
						H125.7z M133.4,93h5.3v6.4h-5.3V93z"/>
					<path class="st1" d="M200.2,93h6.4v-2.2h-8.3v-3.4h-2.4v3.4h-8.3V93h6.4c-1.6,3.9-3.6,6.2-7,8.2v2.6c4.1-2.1,6.8-4.9,8.8-9.1
						v6.8h-4.1v2.1h4.1v2.7h2.4v-2.7h4.1v-2.1h-4.1v-6.8c2,4.2,4.7,7,8.8,9.1v-2.6C203.8,99.2,201.7,96.9,200.2,93z"/>
					<polygon class="st1" points="220.2,95.3 227.5,95.3 227.5,93.1 220.2,93.1 220.2,87.4 217.8,87.4 217.8,93.1 210.4,93.1 
						210.4,95.3 217.8,95.3 217.8,103.5 209.5,103.5 209.5,105.7 228.4,105.7 228.4,103.5 220.2,103.5 					"/>
					<path class="st1" d="M167.7,88.4v17.5h15.7V88.4H167.7z M181,90.6v5.3h-10.9v-5.3H181z M181,98.1v5.6h-10.9v-5.6H181z"/>
					<path class="st1" d="M257.7,102.5c0.8-1.9,1.2-4,1.2-5.9v-2.1h-2.3l2.4-5.9h-5.7v2.1h2.5l-2.5,5.9h3.6c0,1.3-0.2,2.5-0.5,3.6
						c-0.3-0.8-0.5-1.6-0.7-2.4h-2.3c0.4,1.7,0.9,3.5,2,5.1c-0.6,1.1-1.3,2.2-2,3.1h2.5c0.4-0.5,0.7-1,1-1.5
						c1.2,0.9,2.7,1.5,4.7,1.5h10.7V104h-10.7C259.8,104,258.6,103.4,257.7,102.5z"/>
					<path class="st1" d="M264.4,91.6H259v1.7h5.4v1.3h-4.5v1.7h4.5v1.2h-4.8v1.7h4.8v1.2H259v1.7h5.4v1.2h2.3v-1.2h5.4v-1.7h-5.4
						v-1.2h4.9v-1.7h-4.9v-1.2h4.5v-3h0.9v-1.7h-0.9v-3l-4.5,0v-1.2h-2.3v1.2h-4.5v1.7h4.5V91.6z M269.1,94.6h-2.4v-1.3h2.4V94.6z
						 M269.1,90.3v1.3h-2.4v-1.3H269.1z"/>
					<path class="st1" d="M156.2,99.2h7.2V97h-1.8v-7.3l-6.4,0v-2.2h-2.4v2.2l-6.3,0V97h-1.9v2.2h7.2c-1.2,2.6-4.4,4.9-7.5,5.1v2.1
						c3.6-0.3,7.9-2.7,9.7-6.2c1.7,3.5,6.1,6,9.7,6.2v-2.1C160.6,104,157.4,101.8,156.2,99.2z M159.2,91.8V97h-4v-5.2H159.2z
						 M148.8,91.8h3.9V97h-3.9V91.8z"/>
					<path class="st1" d="M285.7,90c0-0.8,0.1-1.7,0.1-2.6h-2.1c0,2.9-0.1,6.6-1.6,7.9l0,2c-0.3,0.2-0.5,0.3-0.8,0.4v-4.5h1.4v-2.2
						h-1.4v-3.7h-2.4v3.7H278c0-0.8,0-1.7,0-2.7h-2.1c0,2.9,0.1,5.9-1,7l0,2.2c1.9-0.8,2.7-2.3,2.9-4.3h1v5.4
						c-1.1,0.3-2.3,0.5-3.5,0.7v2.2c1.3-0.2,2.5-0.3,3.5-0.6v5.3h2.4v-6.1c0.5-0.2,0.9-0.5,1.4-0.8l0-2c1.7-1.1,2.5-2.9,2.8-5.1h1.3
						c-0.6,3.9-2.4,6.9-4.8,8.7v2.4c3.8-2.4,6-5.4,7-11.1h1.5c-1,6.1-3.3,9.7-6.9,11.9v2.2c4.5-1.9,7-5.7,8.4-10.9l0,8.3v0
						c0,0.2-0.2,0.4-0.4,0.4l0,0h-2.9v2.2h3.3c1.4,0,2.2-0.7,2.2-2.2V90H285.7z"/>
					<path class="st1" d="M241.4,103.9c-0.2,0-0.4-0.2-0.4-0.4l0-9.1l2-0.4v7.9h2.4v-8.4l2-0.4v8.8h2.4V90.5l-4.4,0.8v-3.9H243v4.3
						l-2,0.4l0-3.6h-2.4v4l-1.3,0.2v-1h-2v-4.5h-2.3v4.5h-2v2.2h2v8.6l-1.9,0.4v2.2l6.2-1.2v-2.2l-2,0.4v-8.1h2v1l1.3-0.2v9.1
						c0,1.5,0.7,2.2,2.2,2.2h9.2v-2.2L241.4,103.9z"/>
				</g>
				<g>
					<rect x="338.5" y="95.3" class="st1" width="17.1" height="2.6"/>
					<g>
						<path class="st1" d="M333.5,94.2c-0.5,4-1.3,6.9-5.3,8.5V88.1h-2.7v15.4v2.5v0.1c5.1-0.8,10-3,10.4-11.8H333.5z"/>
						<path class="st1" d="M320,96.1c0,3.5-1.2,6-2.9,7.2l0,2.7c2.3-1.2,5.7-3.8,5.7-10.4v-7.5H320V96.1z"/>
					</g>
					<path class="st1" d="M373.6,87c-1.2,0-2.1,0.7-2.5,1.8h-14.8v2.4h12.9c-0.7,6.8-4.4,11.2-10.6,12.6v2.2
						c6.1-0.8,12.2-5.1,13.4-14.2c0.4,0.3,1,0.5,1.6,0.5c1.5,0,2.7-1.2,2.7-2.7C376.3,88.2,375.1,87,373.6,87z M373.6,91
						c-0.8,0-1.4-0.6-1.4-1.4c0-0.8,0.6-1.4,1.4-1.4c0.8,0,1.4,0.6,1.4,1.4C375,90.4,374.4,91,373.6,91z"/>
					<g>
						<rect x="315.6" y="87.4" class="st1" width="1.7" height="3.7"/>
						<path class="st1" d="M314.4,87.4h-1.7v3.7h-0.8v-2.4h-11.2c-0.5,2.6-1.1,4.7-3.5,6.2v2.4c2.9-1,4.8-3.6,5.8-6.3h7.4
							c-0.6,6.8-3.8,11.2-10,12.6v2.2c6.3-0.9,12-5.3,12.8-14.9h1.2V87.4z"/>
					</g>
				</g>
			</g>
		</g>
	</g>
</g>
</svg>
